<?xml version="1.0" standalone="no"?><!DOCTYPE svg PUBLIC "-//W3C//DTD SVG 1.1//EN" "http://www.w3.org/Graphics/SVG/1.1/DTD/svg11.dtd"><svg t="1627699146627" class="icon" viewBox="0 0 1024 1024" version="1.1" xmlns="http://www.w3.org/2000/svg" p-id="1257" xmlns:xlink="http://www.w3.org/1999/xlink" width="200" height="200"><defs><style type="text/css"></style></defs><path d="M878.514 154.502a514.944 514.944 0 0 0-44.367-40.458C746.166 42.734 634.074 0.006 512 0.006c-122.074 0-234.165 42.728-322.146 114.038a515.27 515.27 0 0 0-44.367 40.458C55.471 246.774 0.006 372.91 0.006 512s55.464 265.225 145.48 357.497a515.133 515.133 0 0 0 44.367 40.459c87.981 71.309 200.073 114.037 322.146 114.037 122.074 0 234.166-42.729 322.146-114.038a514.81 514.81 0 0 0 44.367-40.458c90.016-92.272 145.48-218.407 145.48-357.497 0.002-139.09-55.463-265.226-145.478-357.498zM333.892 96.443c-20.74 25.117-39.522 54.504-55.894 87.397a448.69 448.69 0 0 1-42.653-29.339c30.209-23.444 63.186-42.883 98.547-58.058z m-144.038 98.518a513.169 513.169 0 0 0 64.095 44.336c-26.688 71.086-43.247 153.969-46.285 242.938H60.967c3.257-50.527 14.83-99.566 34.534-146.153 22.296-52.712 54.034-100.17 94.353-141.121z m-0.001 634.077c-40.318-40.951-72.057-88.409-94.352-141.12-19.704-46.588-31.276-95.628-34.534-146.155h146.697c3.037 88.969 19.597 171.852 46.285 242.938a513.187 513.187 0 0 0-64.096 44.337z m45.491 40.459a449.003 449.003 0 0 1 42.653-29.339c16.371 32.893 35.154 62.28 55.894 87.397-35.36-15.174-68.337-34.613-98.547-58.058z m246.892 90.899c-18.331-4.441-36.453-12.98-54.15-25.552-29.035-20.625-56.73-52.268-80.094-91.506-5.868-9.855-11.435-20.13-16.716-30.775a454.26 454.26 0 0 1 4.807-2.067c46.587-19.704 95.626-31.276 146.153-34.534v184.434z m0-244.535c-61.714 3.539-120.501 18-174.452 41.492-6.991-19.318-13.17-39.578-18.494-60.716-12.408-49.268-19.628-101.244-21.58-154.875h214.525v174.099z m0-233.626H267.711c1.951-53.63 9.171-105.606 21.579-154.874 5.323-21.138 11.502-41.398 18.494-60.718 53.951 23.493 112.738 37.954 174.452 41.493v174.099z m0-234.198c-50.527-3.257-99.566-14.83-146.153-34.534-1.607-0.68-3.209-1.37-4.807-2.067 5.281-10.645 10.848-20.919 16.716-30.774 23.364-39.239 51.06-70.881 80.094-91.506 17.697-12.572 35.819-21.11 54.15-25.551v184.432z m446.262 88.045c19.705 46.587 31.277 95.626 34.535 146.153H816.336c-3.038-88.969-19.598-171.852-46.285-242.938a513.187 513.187 0 0 0 64.096-44.337c40.318 40.952 72.056 88.41 94.351 141.122z m-139.842-181.58a449.145 449.145 0 0 1-42.654 29.339c-16.371-32.893-35.154-62.281-55.895-87.398 35.362 15.174 68.338 34.613 98.549 58.059zM541.764 63.604c18.33 4.44 36.453 12.979 54.15 25.552 29.035 20.625 56.73 52.268 80.094 91.506 5.869 9.855 11.436 20.13 16.717 30.775a445.44 445.44 0 0 1-4.807 2.066c-46.588 19.705-95.627 31.277-146.154 34.534V63.604z m0 244.533c61.713-3.539 120.501-18 174.453-41.492 6.99 19.319 13.17 39.579 18.494 60.717 12.406 49.268 19.627 101.243 21.578 154.874H541.764V308.137z m0 233.626h214.525c-1.951 53.631-9.172 105.607-21.578 154.875-5.324 21.138-11.504 41.396-18.494 60.716-53.952-23.492-112.74-37.953-174.453-41.492V541.763z m54.15 393.081c-17.697 12.572-35.82 21.111-54.15 25.552V775.961c50.527 3.257 99.566 14.829 146.154 34.534a475.96 475.96 0 0 1 4.807 2.066c-5.281 10.646-10.848 20.921-16.717 30.776-23.363 39.239-51.059 70.882-80.094 91.507z m94.193-7.287c20.74-25.118 39.523-54.506 55.895-87.399a448.577 448.577 0 0 1 42.654 29.339c-30.211 23.445-63.187 42.885-98.549 58.06z m238.391-239.639c-22.295 52.711-54.033 100.169-94.352 141.12a513.113 513.113 0 0 0-64.096-44.337c26.688-71.087 43.248-153.97 46.285-242.938h146.697c-3.257 50.527-14.829 99.567-34.534 146.155z" p-id="1258"></path></svg>